<svg width="37" height="25" viewBox="0 0 37 25" fill="none" xmlns="http://www.w3.org/2000/svg">
<path d="M0 0H37V25H0V0Z" fill="#012169"/>
<path d="M4.33594 0L18.4422 9.42708L32.4906 0H37V3.22917L23.125 12.5521L37 21.8229V25H32.375L18.5 15.6771L4.68281 25H0V21.875L13.8172 12.6042L0 3.33333V0H4.33594Z" fill="white"/>
<path d="M24.5125 14.6354L37 22.9167V25L21.3328 14.6354H24.5125ZM13.875 15.6771L14.2219 17.5L3.12188 25H0L13.875 15.6771ZM37 0V0.15625L22.6047 9.94792L22.7203 7.65625L34.1094 0H37ZM0 0L13.8172 9.16667H10.3484L0 2.1875V0Z" fill="#C8102E"/>
<path d="M13.9328 0V25H23.1828V0H13.9328ZM0 8.33333V16.6667H37V8.33333H0Z" fill="white"/>
<path d="M0 10.0521V15.0521H37V10.0521H0ZM15.7828 0V25H21.3328V0H15.7828Z" fill="#C8102E"/>
</svg>
