<svg width="332" height="331" viewBox="0 0 332 331" fill="none" xmlns="http://www.w3.org/2000/svg">
<mask id="mask0_118_293" style="mask-type:alpha" maskUnits="userSpaceOnUse" x="0" y="-334" width="663" height="665">
<path d="M565.464 -98.4479V-235.875H429.455L332.214 -333.109L331.475 -332.37L330.736 -333.109L233.496 -235.875H97.5357V-98.4479L0.294922 -1.21432L97.5357 96.0194V233.447H233.496L330.736 330.68L331.475 329.942L332.214 330.68L429.455 233.447H565.464V96.0194L662.656 -1.21432L565.464 -98.4479Z" fill="url(#paint0_linear_118_293)"/>
</mask>
<g mask="url(#mask0_118_293)">
<path d="M8.95235 97.3484C10.9833 97.3484 13.2815 99.1119 15.9539 102.692C16.9227 104.301 17.388 106.162 17.29 108.037C17.5541 108.588 17.6997 109.189 17.7176 109.8C17.7176 111.564 17.3434 112.472 16.9159 112.472C15.8712 112.178 14.7939 112.017 13.7091 111.991C7.00614 112.411 0.343033 113.321 -6.22651 114.717C-12.0477 115.56 -17.9309 115.9 -23.8105 115.732H-24.1312C-27.2973 115.703 -30.4379 115.161 -33.431 114.129C-34.9757 113.6 -36.3972 112.765 -37.6098 111.671C-38.8224 110.578 -39.8008 109.251 -40.4859 107.769C-41.5713 105.082 -42.1685 102.223 -42.2496 99.3257C-41.9471 102.302 -40.8178 105.134 -38.9894 107.502C-36.6154 109.589 -33.6774 110.928 -30.5448 111.35C-28.1578 111.741 -25.7474 111.974 -23.3295 112.045C-16.8277 112.087 -10.3349 111.551 -3.92833 110.441C-2.21804 110.067 2.37841 109.373 9.96785 108.304H15.3125H15.9539C15.3125 106.059 14.2435 104.937 12.747 104.884C11.7684 104.952 10.7862 104.952 9.80752 104.884H9.37993C8.89891 104.884 8.63165 103.547 8.6851 100.982V100.662C8.41787 98.4706 8.63167 97.3484 8.95235 97.3484Z" fill="white"/>
<path d="M338.772 119.847C336.42 120.595 329.009 123.891 316.538 129.733C310.085 133.31 303.103 135.835 295.854 137.215H285.486C310.428 125.601 324.68 119.811 328.243 119.847H338.772Z" fill="white"/>
<path d="M160.474 85.3244C163.056 84.7432 165.607 84.0297 168.117 83.1868C170.257 82.4687 172.488 82.0549 174.744 81.9576C176.561 81.9576 177.256 82.7058 176.829 84.2022C176.587 85.3948 175.946 86.4693 175.011 87.2482C174.406 86.1794 172.001 86.1794 167.796 87.2482C160.207 89.9202 155.129 90.4013 152.51 88.6912C151.346 88.0486 150.395 87.0778 149.778 85.8996C149.16 84.7215 148.902 83.3878 149.036 82.0644C150.065 83.6478 151.646 84.791 153.472 85.2709C155.752 85.9639 158.184 85.9825 160.474 85.3244ZM162.772 75.7584C162.569 76.9805 162.074 78.1355 161.329 79.1252L158.657 77.6289C158.657 77.2548 159.191 76.0791 159.993 74.1018L161.543 74.7431C162.054 74.9356 162.487 75.2928 162.772 75.7584ZM164.643 70.735C164.425 71.969 163.932 73.1381 163.2 74.1553L160.527 72.6589C160.91 71.4604 161.356 70.283 161.864 69.1318L163.413 69.7196C163.837 69.9612 164.187 70.3119 164.429 70.735H164.643ZM167.262 75.7584C167.071 76.9746 166.594 78.1283 165.872 79.1252L163.2 77.6289C163.547 76.4184 163.994 75.2387 164.536 74.1018L166.086 74.7431C166.584 74.9348 166.999 75.2938 167.262 75.7584Z" fill="white"/>
<path d="M241.072 37.0137H241.66C242.817 40.3242 244.228 43.5402 245.882 46.633L243.156 48.3431C244.57 56.8971 244.479 65.6322 242.889 74.1551C241.753 76.8879 239.908 79.2677 237.544 81.0489L236.956 80.4611C237.461 79.3998 237.855 78.2896 238.132 77.1478C240.591 68.0094 238.934 52.458 236.529 40.9682C237.865 39.7391 239.254 38.2428 241.072 37.0137Z" fill="white"/>
<path d="M270.147 45.6711L270.574 46.1521C270.517 49.7242 270.714 53.2959 271.162 56.8403L267.955 57.4282C266.209 65.9289 263.009 74.0645 258.495 81.4766C256.356 83.5951 253.705 85.1233 250.799 85.9121L250.478 85.164C251.337 84.338 252.107 83.4245 252.776 82.4384C258.121 74.8499 262.343 59.7262 264.214 48.1295C265.978 47.1142 268.223 46.259 270.147 45.6711Z" fill="white"/>
<path d="M182.227 71.0554C184.009 75.7012 184.985 80.6171 185.113 85.5913C185.113 87.5152 185.113 88.3703 182.173 92.3249L181.585 91.9508C182.04 90.7213 182.24 89.4122 182.173 88.1031C181.336 79.7579 179.058 71.6211 175.439 64.0547C176.086 62.8748 176.8 61.733 177.577 60.6346H178.165C178.695 62.2137 179.451 63.7076 180.409 65.0701C181.008 65.6861 181.722 66.1779 182.51 66.5172C183.299 66.8565 184.147 67.0366 185.006 67.0474C186.877 67.0474 188.052 66.1389 188.052 63.0393C188.052 62.4515 188.052 61.7567 188.052 61.0085C188.495 60.7927 188.961 60.6312 189.442 60.5276C190.244 64.215 191.313 65.4977 192.863 65.4977C194.413 65.4977 195.481 64.4823 195.481 61.9171C195.507 61.49 195.507 61.0617 195.481 60.6346C195.993 60.5364 196.52 60.5364 197.031 60.6346C197.192 61.4986 197.282 62.3744 197.299 63.2531C197.299 67.2612 195.375 69.6661 192.863 69.6661C191.669 69.632 190.521 69.1992 189.602 68.4369C189.238 69.3295 188.605 70.0868 187.791 70.6038C186.977 71.1209 186.022 71.3721 185.059 71.3227C184.17 71.3269 183.292 71.1257 182.494 70.7348L182.227 71.0554Z" fill="white"/>
<path d="M313.171 34.021C314.954 38.6482 315.93 43.5465 316.057 48.5035C316.057 50.4273 316.057 51.2824 313.118 55.237L312.53 54.9164C312.989 53.6695 313.189 52.342 313.118 51.0152C312.28 42.6872 310.001 34.5682 306.383 27.0203C307.132 25.6843 307.826 24.5621 308.521 23.5467H309.109C309.661 25.1165 310.416 26.6076 311.354 27.9822C312.557 29.241 314.21 29.9714 315.95 30.013C317.821 30.013 318.997 29.1044 318.997 25.9514C318.997 25.3636 318.997 24.7223 318.997 23.9206L320.386 23.4397C321.188 27.1806 322.257 28.4098 323.807 28.4098C325.357 28.4098 326.426 27.3944 326.426 24.8827C326.452 24.4377 326.452 23.9917 326.426 23.5467C326.954 23.5529 327.477 23.6431 327.976 23.8138C328.165 24.6916 328.255 25.588 328.243 26.4859C328.243 30.4939 326.319 32.8988 323.807 32.8988C322.607 32.8497 321.459 32.3978 320.547 31.6161C320.182 32.5088 319.549 33.2661 318.735 33.7831C317.921 34.3001 316.967 34.5514 316.004 34.502C315.111 34.4858 314.234 34.2665 313.438 33.8607L313.171 34.021Z" fill="white"/>
<path d="M154.755 -10.8691C156.538 -6.24195 157.514 -1.34359 157.641 3.61332C157.641 5.53719 157.641 6.39229 154.702 10.3469L154.167 10.0263C154.585 8.7702 154.767 7.44731 154.702 6.12504C153.857 -2.21875 151.579 -10.3542 147.967 -17.9233C148.716 -19.2059 149.41 -20.3815 150.105 -21.3435H150.693C151.245 -19.7736 152 -18.2826 152.938 -16.9079C153.536 -16.292 154.25 -15.8002 155.039 -15.4609C155.828 -15.1215 156.676 -14.9414 157.534 -14.9307C159.405 -14.9307 160.581 -15.7857 160.581 -18.9387C160.629 -19.6148 160.629 -20.2934 160.581 -20.9695C161.032 -21.1615 161.497 -21.3222 161.97 -21.4504C162.772 -17.7096 163.841 -16.4805 165.391 -16.4805C166.941 -16.4805 168.063 -17.4957 168.063 -20.0074C168.09 -20.4524 168.09 -20.8985 168.063 -21.3435C168.608 -21.3366 169.149 -21.2466 169.667 -21.0763C169.827 -20.2122 169.917 -19.3365 169.934 -18.4578C169.934 -14.3963 167.956 -12.0448 165.444 -12.0448C164.251 -12.0789 163.103 -12.5116 162.184 -13.274C161.828 -12.3714 161.199 -11.6026 160.384 -11.0756C159.57 -10.5485 158.61 -10.2894 157.641 -10.3347C156.748 -10.3509 155.871 -10.5703 155.076 -10.9761L154.755 -10.8691Z" fill="white"/>
<path d="M271.964 14.6219C271.472 15.6824 271.044 16.771 270.681 17.8819C268.504 18.6603 266.53 19.9209 264.909 21.5693C264.909 22.5847 267.367 24.2414 271.697 24.2414H273.514C273.251 25.1496 272.893 26.0273 272.445 26.8599C269.291 28.3563 266.405 30.4939 266.405 31.7231C266.405 32.9522 268.222 34.2881 271.322 34.2881C273.068 34.3123 274.798 33.9662 276.4 33.2727C275.733 34.4471 274.983 35.5722 274.155 36.6395C272.806 37.141 271.372 37.3769 269.933 37.3343C269.258 37.3853 268.58 37.2982 267.941 37.0781C267.301 36.858 266.713 36.5096 266.212 36.0544C265.712 35.5991 265.31 35.0464 265.031 34.4303C264.751 33.8142 264.601 33.1475 264.588 32.4711C264.651 31.35 264.968 30.2579 265.514 29.2767C266.06 28.2956 266.822 27.4509 267.741 26.8064C264.909 26.4858 263.038 25.1499 263.038 23.0657C263.059 21.4879 263.647 19.9704 264.695 18.7903C266.78 16.8977 269.164 15.3628 271.75 14.2478L271.964 14.6219Z" fill="white"/>
<path d="M312.477 1.3689C315.897 1.3689 318.195 6.71293 318.195 10.5072C318.258 12.1394 318.023 13.7693 317.501 15.3169C316.857 16.3079 315.99 17.1338 314.969 17.728C313.948 18.3221 312.801 18.6678 311.621 18.7372C309.163 18.7372 306.009 17.0805 305.956 11.8433C305.903 6.60605 309.056 1.3689 312.477 1.3689ZM316.966 12.0571C316.966 10.8279 315.362 4.52188 311.995 4.52188C309.644 4.52188 307.292 8.42307 307.292 11.0417C307.395 12.2341 307.93 13.348 308.796 14.1744C309.662 15.0009 310.799 15.4831 311.995 15.5307C313.072 15.5275 314.123 15.1993 315.01 14.589C315.896 13.9787 316.578 13.1147 316.966 12.1104V12.0571Z" fill="white"/>
<path d="M213.814 61.4897C217.234 61.4897 219.533 66.8338 219.533 70.6281C219.596 72.2602 219.36 73.8902 218.838 75.4377C218.195 76.4287 217.327 77.2547 216.306 77.8488C215.285 78.4429 214.138 78.7887 212.959 78.858C210.5 78.858 207.293 77.2013 207.293 71.9641C207.293 66.7269 210.393 61.4897 213.814 61.4897ZM218.303 72.1779C218.303 70.9488 216.7 64.6427 213.333 64.6427C210.928 64.6427 208.629 68.5439 208.629 71.1625C208.733 72.355 209.267 73.4688 210.133 74.2953C210.999 75.1217 212.137 75.6039 213.333 75.6515C214.409 75.6483 215.46 75.3201 216.347 74.7099C217.234 74.0996 217.916 73.2356 218.303 72.2312V72.1779Z" fill="white"/>
<path d="M9.75409 8.52979C13.2281 8.52979 15.5263 13.8738 15.5263 17.6681C15.5736 19.3036 15.32 20.9339 14.7781 22.4778C14.1349 23.4688 13.2676 24.2947 12.2464 24.8889C11.2251 25.483 10.0784 25.8287 8.89892 25.8981C6.44037 25.8981 3.28703 24.2413 3.23358 19.0041C3.18013 13.7669 6.3335 8.52979 9.75409 8.52979ZM14.2971 19.2179C14.2971 17.9888 12.6402 11.6828 9.3265 11.6828C6.9214 11.6828 4.56975 15.584 4.56975 18.2026C4.68384 19.3909 5.22188 20.4983 6.0855 21.3226C6.94911 22.1469 8.08063 22.6329 9.27309 22.6916C10.3588 22.6992 11.4211 22.3761 12.3186 21.7651C13.2161 21.1541 13.9062 20.2841 14.2971 19.2713V19.2179Z" fill="white"/>
<path d="M-7.08164 -14.0756C-9.28417 -5.87686 -11.9065 2.20334 -14.9383 10.133H-15.2056C-15.9583 8.80009 -16.6364 7.42638 -17.2366 6.01817C-13.5279 -1.98476 -10.5928 -10.3238 -8.47131 -18.8853L-6.11964 -21.3435H-5.79897C-3.36443 -11.5704 0.374798 -2.16958 5.31796 6.60594C4.40936 7.72819 3.60771 8.85047 2.69912 10.133H2.27153C-1.89631 2.52103 -5.00709 -5.62349 -6.97481 -14.0756H-7.08164Z" fill="white"/>
<path d="M342.514 75.2239C340.353 71.3429 339.059 67.0405 338.719 62.612C338.666 61.9182 338.666 61.2214 338.719 60.5277C337.819 60.6909 336.907 60.7803 335.993 60.795C331.985 60.795 329.259 59.0314 329.259 55.0233C329.323 53.2291 330.008 51.5128 331.197 50.1677C332.387 48.8226 334.006 47.9321 335.779 47.6484C338.131 47.6484 340.696 49.9465 340.696 57.642C340.792 62.7147 342.311 67.6585 345.079 71.9106C343.956 73.5138 343.369 74.3689 342.674 75.2774L342.514 75.2239ZM334.71 51.4962C333.975 51.4647 333.251 51.6788 332.651 52.1045C332.051 52.5302 331.609 53.1435 331.397 53.8476C331.397 55.8783 334.817 57.0006 337.596 57.0006H338.719C338.184 52.2978 335.833 51.4962 334.71 51.4962Z" fill="white"/>
<path d="M167.689 113.755C167.792 115.71 168.024 117.656 168.384 119.58C168.798 121.211 168.798 122.919 168.384 124.55C167.903 125.832 166.781 126.207 165.017 125.726C163.72 125.465 162.519 124.855 161.543 123.962C163.093 123.695 163.788 121.931 163.627 118.618C162.184 112.793 162.932 109.052 165.819 107.395C168.653 105.785 171.969 105.236 175.172 105.846C173.167 106.225 171.312 107.171 169.827 108.571C169.092 109.209 168.516 110.01 168.144 110.91C167.773 111.81 167.617 112.784 167.689 113.755ZM177.363 116.32L175.011 115.465C174.153 115.238 173.376 114.775 172.767 114.129L174.798 110.014C176.456 110.552 178.066 111.231 179.608 112.045C179.127 113.327 178.86 114.129 178.699 114.45C178.539 114.77 177.791 116.16 177.363 116.32ZM183.135 118.725L180.784 117.87C179.944 117.6 179.176 117.143 178.539 116.534L180.623 112.365C182.252 112.935 183.842 113.614 185.38 114.396C184.953 115.679 184.632 116.48 184.525 116.801C184.418 117.122 183.616 118.511 183.135 118.725ZM178.058 123.481L175.76 122.679C174.907 122.411 174.135 121.934 173.515 121.29L175.546 117.175C177.189 117.708 178.781 118.387 180.303 119.206C179.875 120.488 179.554 121.29 179.447 121.611C179.341 121.931 178.539 123.321 178.058 123.481Z" fill="white"/>
<path d="M160.901 112.259C161.004 114.213 161.236 116.159 161.596 118.084C162.039 119.711 162.039 121.426 161.596 123.054C161.169 124.336 160.046 124.71 158.229 124.176C156.946 123.954 155.756 123.359 154.808 122.466C156.358 122.145 157.053 120.435 156.893 117.122C155.45 111.243 156.145 107.502 159.031 105.899C161.869 104.298 165.181 103.749 168.384 104.349C166.379 104.729 164.524 105.675 163.039 107.075C162.297 107.707 161.716 108.507 161.345 109.409C160.973 110.31 160.821 111.287 160.901 112.259ZM149.517 115.091C147.916 114.813 146.398 114.173 145.081 113.22L147.005 109.747C148.602 110.182 150.157 110.754 151.655 111.457L150.853 113.488C150.58 114.145 150.114 114.704 149.517 115.091ZM149.517 120.969C147.92 120.707 146.403 120.086 145.081 119.152L147.005 115.625C148.593 116.088 150.146 116.659 151.655 117.335L150.853 119.366C150.596 120.032 150.126 120.596 149.517 120.969Z" fill="white"/>
<path d="M143.05 111.51C141.035 110.586 138.853 110.077 136.637 110.014C134.478 109.98 132.324 110.214 130.223 110.709C128.059 111.247 125.948 111.98 123.916 112.9C121.832 113.808 119.801 114.77 117.77 115.839L111.784 118.938C109.888 119.878 107.943 120.716 105.958 121.45C104.239 122.106 102.443 122.537 100.614 122.733C98.8104 122.95 96.9815 122.749 95.2688 122.145C93.3964 121.454 91.6993 120.36 90.2983 118.938C88.4337 117.06 86.8819 114.895 85.7019 112.526L86.1829 113.274C86.4824 113.815 86.8219 114.333 87.1984 114.823C87.626 115.411 88.1604 116.053 88.7483 116.747C89.4225 117.47 90.1754 118.116 90.9931 118.671C91.9035 119.296 92.8918 119.799 93.9327 120.168C95.1122 120.606 96.3623 120.823 97.6205 120.809C99.1326 120.834 100.637 120.581 102.057 120.061C103.723 119.434 105.347 118.703 106.92 117.87C108.631 117.015 110.341 116.053 112.265 115.037C114.189 114.022 115.953 113.006 117.877 112.045C119.829 111.125 121.827 110.305 123.863 109.586C125.882 108.876 127.983 108.427 130.116 108.25C132.281 108.103 134.456 108.247 136.583 108.678C138.878 109.266 141.062 110.223 143.05 111.51Z" fill="white"/>
<path d="M-5.95927 -129.134C-17.8244 -154.073 -23.1691 -169.339 -21.9933 -174.933C-21.8329 -175.622 -21.5812 -176.287 -21.245 -176.91C-23.757 -174.505 -26.3224 -172.1 -28.9413 -170.016C-29.7965 -168.189 -30.442 -166.27 -30.8654 -164.298C-30.8461 -159.773 -30.2718 -155.269 -29.1551 -150.884C-18.7865 -126.658 -12.07 -110.287 -9.0057 -101.772C-5.45546 -89.3297 -4.36624 -76.3144 -5.79894 -63.455C-10.8229 -37.1621 -31.7918 -15.3762 -68.7057 1.903V2.70474C-67.341 2.54549 -65.9972 2.24086 -64.6972 1.79619C-51.6431 -4.83815 -39.3341 -12.8462 -27.9793 -22.0919C-12.3061 -36.2726 -1.57579 -55.0906 2.64565 -75.7998C5.49615 -91.2264 2.62784 -109.004 -5.95927 -129.134Z" fill="white"/>
<path d="M300.13 108.838C289.284 111.424 278.788 115.299 268.864 120.381C260.671 125.033 251.539 127.791 242.14 128.451C235.032 128.451 232.306 125.512 233.91 119.633C234.843 114.904 237.348 110.629 241.018 107.502C243.512 111.777 253.418 109.996 270.735 102.158C300.914 91.4699 321.188 89.5817 331.557 96.4933C336.171 99.0105 339.94 102.832 342.393 107.48C344.845 112.129 345.873 117.397 345.346 122.626C341.199 116.416 334.958 111.903 327.762 109.907C318.838 106.942 309.256 106.571 300.13 108.838Z" fill="white"/>
<path d="M243.423 88.1566C247.619 78.6777 249.96 68.4826 250.318 58.1229C250.527 48.1044 249.449 38.1004 247.111 28.3563C244.636 18.2746 241.255 8.43716 237.009 -1.03615C232.698 -10.7624 228.084 -20.364 223.167 -29.8408C218.303 -39.2999 213.493 -48.5985 208.79 -57.8438C204.264 -66.6072 200.318 -75.6581 196.978 -84.9383C193.887 -93.3124 191.841 -102.036 190.885 -110.91C190.027 -119.248 190.993 -127.673 193.718 -135.6C196.965 -144.299 202.03 -152.206 208.576 -158.793C217.447 -167.52 227.615 -174.821 238.72 -180.437C237.634 -179.556 236.451 -178.802 235.192 -178.192C233.161 -177.017 230.756 -175.467 227.924 -173.436C224.737 -171.16 221.702 -168.679 218.838 -166.008C215.452 -162.893 212.439 -159.396 209.859 -155.587C206.946 -151.328 204.593 -146.712 202.857 -141.853C200.931 -136.318 199.92 -130.505 199.864 -124.645C199.793 -117.599 201.044 -110.602 203.552 -104.017C206.39 -96.2296 209.746 -88.6418 213.6 -81.3042C217.662 -73.395 222.151 -65.2721 226.962 -56.7215C231.772 -48.171 236.475 -39.5136 240.858 -30.4821C245.262 -21.4601 249.117 -12.18 252.402 -2.69279C255.658 6.72137 257.722 16.5056 258.548 26.4324C259.378 36.5775 258.693 46.7896 256.518 56.7334C254.032 67.8953 249.6 78.5323 243.423 88.1566Z" fill="white"/>
<path d="M366.297 4.52176C358.757 6.07578 351.02 6.43634 343.369 5.59048C336.251 4.67699 329.645 1.40285 324.609 -3.70818C319.407 -11.1498 317.09 -20.2289 318.088 -29.2529L321.509 -27.0618C319.656 -22.7865 323.593 -17.6562 333.321 -11.6708C338.306 -8.82576 344.114 -7.76985 349.782 -8.67813L364.908 -10.4418C373.387 -12.3358 382.035 -13.3741 390.722 -13.5413H396.067V-14.0757C396.067 -16.1421 386.714 -28.0238 368.008 -49.7208C351.806 -70.7923 337.498 -93.2534 325.25 -116.842C320.895 -123.533 318.15 -131.143 317.233 -139.074C318.866 -150.525 321.696 -161.774 325.678 -172.635C328.66 -171.626 331.777 -171.067 334.924 -170.978H338.665C350.588 -171.944 362.234 -175.077 373.032 -180.223C380.511 -184.097 387.2 -189.335 392.753 -195.668C394.671 -199.618 396.905 -203.407 399.434 -206.997H399.862C395.926 -192.751 387.373 -180.214 375.544 -171.352C368.042 -166.121 359.66 -162.283 350.798 -160.023L349.943 -160.45C349.943 -159.168 343.689 -157.885 331.076 -156.709V-157.137L330.221 -156.709H329.793C327.869 -156.709 326.907 -157.137 326.907 -157.992C323.486 -157.992 321.83 -156.549 321.83 -153.717C321.491 -153.077 321.343 -152.354 321.402 -151.632C321.402 -145.148 328.528 -130.327 342.781 -107.17C356.605 -84.0889 372.509 -62.3192 390.295 -42.1321C395.173 -37.2352 398.739 -31.1884 400.664 -24.55V-23.321C400.513 -19.9454 400.102 -16.5864 399.434 -13.2741C401.786 -13.2741 403.069 -11.6709 403.282 -8.5713V-5.258C403.412 -3.81409 403.247 -2.35875 402.797 -0.980682C402.347 0.3974 401.621 1.6694 400.664 2.75812C395.403 1.56477 390.024 0.973206 384.63 0.994644C378.216 2.59787 372.016 3.77359 366.297 4.52176Z" fill="white"/>
<path d="M192.916 18.8974C198.869 18.548 204.795 17.834 210.66 16.7597C215.6 15.6125 220.75 15.7413 225.626 17.1338C229.581 18.5233 230.97 21.9435 229.206 27.3945C228.455 31.3066 226.6 34.9221 223.862 37.8154C223.007 33.1126 217.769 31.0284 208.202 31.5094C190.404 35.8381 179.02 33.7004 174.103 24.9361C169.317 16.3168 167.781 6.26759 169.774 -3.38745C170.928 2.6335 173.784 8.19736 178.004 12.6448C179.876 14.721 182.183 16.358 184.761 17.4389C187.339 18.5198 190.123 19.0179 192.916 18.8974ZM209.538 43.4268C208.75 48.2774 206.827 52.8732 203.926 56.8403L193.237 50.9084C194.724 46.1341 196.509 41.4578 198.582 36.907L204.674 39.3652C206.683 40.1721 208.386 41.5938 209.538 43.4268ZM221.457 43.4268C220.693 48.2393 218.868 52.8213 216.112 56.8403L205.423 50.9084C206.816 46.1021 208.603 41.419 210.767 36.907L216.914 39.3652C218.841 40.1704 220.442 41.6012 221.457 43.4268Z" fill="white"/>
<path d="M215.898 9.43828C209.958 9.73486 204.047 10.4491 198.207 11.5759C193.246 12.7101 188.078 12.5631 183.189 11.1484C179.269 9.75896 178.094 6.33868 179.661 0.887714C180.413 -3.02433 182.267 -6.63992 185.006 -9.53315C185.915 -4.83035 191.152 -2.69276 200.666 -3.22717C218.517 -7.55587 229.848 -5.36474 234.765 3.34611C239.655 11.9459 241.322 22.0058 239.468 31.7232C238.299 25.6963 235.423 20.1318 231.184 15.6909C229.285 13.5485 226.919 11.8706 224.269 10.7865C221.618 9.7025 218.755 9.24123 215.898 9.43828ZM184.578 -13.0068C185.059 -14.4497 186.022 -17.2286 187.518 -21.2367C188.379 -24.2339 189.999 -26.9583 192.221 -29.146L206.812 -21.9315C204.825 -16.1664 202.45 -10.5423 199.704 -5.09763C195.108 -6.70085 192.221 -7.76965 191.206 -8.25062C188.547 -9.08997 186.225 -10.7562 184.578 -13.0068Z" fill="white"/>
<path d="M320.386 57.6952C325.805 48.8492 329.437 39.0268 331.076 28.7837C332.564 18.8746 332.744 8.81293 331.61 -1.14304C330.443 -11.4636 328.35 -21.6585 325.357 -31.6044C322.257 -41.7581 318.89 -51.8406 315.256 -61.8519L304.566 -91.4581C301.214 -100.735 298.447 -110.212 296.282 -119.835C294.247 -128.592 293.313 -137.568 293.503 -146.556C293.688 -154.927 295.714 -163.156 299.435 -170.657C303.73 -178.969 309.764 -186.26 317.126 -192.034C327.011 -199.571 338.01 -205.521 349.729 -209.669C348.55 -208.947 347.295 -208.355 345.987 -207.906C343.85 -206.997 341.231 -205.768 338.131 -204.111C334.691 -202.255 331.371 -200.184 328.19 -197.912C320.245 -192.193 313.778 -184.664 309.323 -175.948C306.631 -170.705 304.825 -165.053 303.978 -159.221C303.05 -152.249 303.412 -145.166 305.047 -138.326C306.866 -130.25 309.223 -122.305 312.102 -114.544C315.202 -106.154 318.569 -97.497 322.311 -88.4655C326.052 -79.434 329.526 -70.1886 333 -60.6762C336.211 -51.1691 338.852 -41.4792 340.91 -31.6579C342.976 -21.9143 343.802 -11.9487 343.369 -1.99811C342.874 8.18802 340.912 18.2495 337.543 27.8753C333.633 38.7518 327.824 48.8482 320.386 57.6952Z" fill="white"/>
<path d="M265.336 81.3162C269.179 73.3832 274.187 66.0699 280.195 59.6192C289.12 49.412 299.756 49.6792 311.995 60.4208C313.505 61.8341 314.933 63.3329 316.271 64.9098C317.577 66.482 318.987 67.9638 320.493 69.3453C325.746 74.3801 332.505 77.5529 339.734 78.3769C338.07 81.6737 335.966 84.7299 333.481 87.4619C332.251 88.7664 330.93 89.9808 329.526 91.0958C319.107 87.3908 307.882 86.5602 297.03 88.6911L283.294 92.3785C276.14 94.458 269.292 97.477 262.931 101.356L257.052 114.556C255.018 118.951 253.477 123.557 252.456 128.291L251.013 129.627L250.692 128.772C251.173 126.153 252.402 121.45 254.433 114.663L258.816 102.212C243.53 105.097 233.696 102.586 229.206 94.6229C224.984 89.2788 223.862 81.6368 225.572 71.4296C226.312 76.6991 228.908 81.5315 232.894 85.057C237.326 88.1992 242.544 90.0493 247.966 90.401C257.961 90.8286 263.733 87.7291 265.336 81.3162ZM278.645 79.7129C281.503 79.3273 284.34 78.7923 287.143 78.1097C293.106 77.1454 299.12 76.5209 305.154 76.2393C301.708 72.944 297.908 70.0405 293.823 67.5819C287.624 63.9479 281.531 65.5512 275.438 72.4985L273.353 74.8499C271.863 76.9028 270.742 79.1994 270.04 81.6368C272.851 80.764 275.729 80.1206 278.645 79.7129ZM298.153 28.0357C296.923 32.4713 296.175 34.9295 296.015 35.5174C295.24 37.9296 293.965 40.1512 292.274 42.0372C287.356 39.472 283.615 37.3877 281.157 35.7845C282.386 31.8833 284.257 26.9133 286.769 20.928L293.182 23.6535C295.222 24.5696 296.923 26.1023 298.046 28.0357H298.153Z" fill="white"/>
<path d="M4.56979 36.4259C6.43418 38.4018 8.71683 39.936 11.2506 40.9161C13.7844 41.8962 16.5053 42.2975 19.2142 42.0906C22.7907 41.9742 26.3587 41.6709 29.9036 41.1821C27.1068 37.4644 23.8973 34.076 20.3366 31.0818C19.8857 28.9155 19.5999 26.7181 19.4815 24.5086C20.0694 18.4697 20.7642 15.4771 21.5659 15.4771H21.9935C23.4146 17.5353 25.2351 19.2867 27.347 20.6271C29.4588 21.9674 31.8186 22.8694 34.2862 23.2794H35.5155C40.889 23.0836 46.127 21.54 50.7478 18.7904L53.6339 18.3629C56.1459 18.3629 59.7269 20.9815 64.3233 26.1652C68.0599 31.3748 71.3666 36.8794 74.2109 42.6249C75.0126 42.6249 75.4402 43.5869 75.4402 45.5108C75.4402 52.084 74.585 56.1989 72.9816 57.0005C68.1714 56.1989 63.0939 55.4508 57.7493 54.8629C48.0735 54.5704 38.3984 55.4678 28.9415 57.5349C16.3281 59.7438 7.42027 57.4103 2.21812 50.5342V50.2136C1.68862 49.535 1.20652 48.8208 0.775118 48.076C0.187204 46.9537 -0.400749 45.8314 -0.935217 44.6557C-2.06261 44.2438 -3.274 44.1154 -4.46272 44.2817C-12.747 48.0226 -18.0916 47.5951 -20.4967 42.9457C-23.0781 36.0117 -23.6341 28.4866 -22.1001 21.2486C-21.5122 27.3408 -20.176 30.7077 -18.0382 31.349C-15.7454 31.9974 -13.3428 32.1612 -10.9832 31.8299C-8.75743 31.6007 -6.57795 31.0424 -4.51614 30.1733L-0.61455 29.0511C0.693556 28.9669 1.98704 29.3662 3.01987 30.1733C3.68008 31.0606 4.15714 32.0703 4.42324 33.1438C4.68934 34.2172 4.73912 35.333 4.56979 36.4259ZM36.0499 35.7312L36.4775 37.7619V39.3651C38.936 39.3651 44.548 38.8307 53.3133 37.7084C53.3715 37.6993 53.431 37.7041 53.4871 37.7223C53.5431 37.7406 53.594 37.7718 53.6357 37.8135C53.6774 37.8552 53.7086 37.9062 53.7269 37.9622C53.7452 38.0183 53.7499 38.0777 53.7408 38.1359L55.7718 37.7084H63.575V37.3343C62.5504 35.5574 61.1304 34.0402 59.425 32.9003C57.7196 31.7604 55.7746 31.0285 53.7408 30.7612H52.8857C47.6775 33.4696 41.9991 35.1566 36.1568 35.7312H36.0499Z" fill="white"/>
<path d="M138.668 10.0796C146.257 10.0796 155.29 16.7063 165.391 30.0131C168.945 35.8944 170.796 42.6474 170.736 49.5189H170.308L170.736 50.374L170.308 51.1756C171.274 53.2819 171.853 55.5445 172.018 57.8557C171.591 64.7496 170.629 68.2232 169.079 68.2232C165.003 67.2085 160.826 66.6528 156.626 66.5666C143.549 66.5666 118.055 70.3075 80.1434 77.7892C57.8626 81.1898 35.337 82.7271 12.8006 82.385H11.5713C11.513 82.3941 11.4535 82.3894 11.3975 82.3711C11.3414 82.3529 11.2905 82.3217 11.2488 82.28C11.2071 82.2383 11.1759 82.1874 11.1576 82.1314C11.1394 82.0754 11.1346 82.0158 11.1438 81.9576C11.1438 81.9576 10.7162 81.9575 10.7162 82.385C-1.41128 82.266 -13.45 80.3018 -24.9863 76.56C-30.9434 74.5944 -36.4424 71.4467 -41.1537 67.3052C-45.865 63.1637 -49.6918 58.1139 -52.4045 52.4583C-56.7719 42.1819 -59.1826 31.1806 -59.5128 20.0197L-58.6577 19.592C-55.8785 34.6624 -51.6027 45.03 -45.777 50.8016C-36.6208 58.7203 -25.3396 63.7747 -13.3348 65.3374C-4.13138 66.738 5.15099 67.5592 14.4574 67.7958C39.5226 67.6454 64.5256 65.2848 89.176 60.7415C95.6965 59.3521 113.512 56.4484 142.623 52.0307C153.312 51.7635 160.207 51.4962 162.558 51.1756C163.338 51.5548 164.209 51.7032 165.07 51.6032V51.1756C162.398 42.6251 158.283 38.2963 152.564 38.2963C148.846 38.8303 145.096 39.116 141.34 39.1514H139.683C137.759 39.1514 136.797 34.1815 136.797 24.188V22.9588C136.583 14.3549 137.278 10.0796 138.668 10.0796Z" fill="white"/>
<path d="M124.718 29.532C122.117 21.7296 118.108 17.8284 112.692 17.8284C108.419 18.3566 104.118 18.6243 99.8118 18.63C97.8342 18.63 96.8722 13.8203 96.8722 4.09409C96.8722 -5.63214 97.567 -10.4418 98.9566 -10.4418C103.048 -10.2465 107.023 -9.01643 110.51 -6.86676C113.996 -4.71709 116.88 -1.71803 118.892 1.84966C123.591 8.02782 127.106 15.0214 129.261 22.4777C130.49 27.8218 131.078 30.868 131.078 31.0283C134.231 32.5246 135.14 35.7846 133.75 40.7546C133.047 44.7616 131.19 48.4762 128.406 51.4427C125.626 46.0986 119.641 44.3886 110.341 45.6177C93.9505 49.1804 83.3858 46.829 78.6468 38.5635C73.7572 29.9633 72.1078 19.8971 73.997 10.1864C75.1311 16.2143 77.9903 21.7836 82.2277 26.2187C84.0352 28.3043 86.2447 30.0039 88.7242 31.216C91.2037 32.4281 93.9023 33.1275 96.6584 33.2727C102.919 33.2986 109.144 32.3246 115.098 30.387C118.26 29.7259 121.489 29.4389 124.718 29.532ZM93.7188 -15.198C92.9706 -12.6863 92.2223 -10.2279 91.5275 -7.82311C90.785 -5.38102 89.5069 -3.13548 87.7863 -1.25C85.3277 -2.58602 81.6399 -4.67012 76.7762 -7.50248C77.9521 -10.9761 79.8227 -15.8927 82.1209 -22.2522C84.436 -21.9394 86.6614 -21.1513 88.6573 -19.9373C90.6532 -18.7234 92.3765 -17.1098 93.7188 -15.198ZM93.7188 1.52903C92.9706 3.98731 92.2223 6.44545 91.5275 8.90372C90.7729 11.3247 89.4958 13.5504 87.7863 15.4235C85.3277 14.0875 81.6399 12.0568 76.7762 9.17103C77.9521 5.75082 79.8227 0.834209 82.1209 -5.57869C84.4403 -5.25953 86.6684 -4.46317 88.6646 -3.23984C90.6608 -2.01651 92.3817 -0.392664 93.7188 1.52903Z" fill="white"/>
<path d="M192.756 112.152C184.016 106.584 174.292 102.738 164.108 100.822C154.228 99.1104 144.168 98.6794 134.178 99.5396C123.845 100.375 113.611 102.164 103.606 104.884C93.3447 107.663 83.1364 110.816 73.0885 114.182L43.2118 124.229C33.8515 127.364 24.3008 129.899 14.6177 131.818C5.83149 133.625 -3.14387 134.343 -12.1056 133.956C-20.4918 133.561 -28.6867 131.316 -36.1033 127.382C-44.2321 122.894 -51.2893 116.695 -56.7871 109.212C-64.1173 99.1673 -69.8004 88.0189 -73.6228 76.186C-72.9898 77.4323 -72.4364 78.7173 -71.966 80.0336C-71.1643 82.1712 -69.935 84.7899 -68.385 87.9429C-66.6116 91.4363 -64.612 94.8103 -62.399 98.0433C-59.8512 101.957 -56.8359 105.547 -53.4199 108.731C-49.6651 112.262 -45.4598 115.281 -40.9134 117.709C-35.7161 120.375 -30.1206 122.18 -24.345 123.054C-17.3866 124.147 -10.2874 123.966 -3.3938 122.519C4.72528 120.887 12.7248 118.709 20.5503 115.999C28.9949 113.149 37.7779 109.96 46.8995 106.433C56.0211 102.906 65.3565 99.6643 74.9056 96.7073C84.4777 93.7134 94.223 91.3041 104.088 89.4927C113.9 87.6825 123.899 87.0901 133.857 87.7291C144.011 88.4762 154.002 90.6903 163.52 94.3024C174.232 98.5012 184.127 104.542 192.756 112.152Z" fill="white"/>
<path d="M-17.2899 -196.683C-13.9523 -192.89 -9.39808 -190.377 -4.40925 -189.575C-0.921806 -188.664 2.67687 -188.251 6.2801 -188.346C10.3861 -188.342 14.4895 -188.557 18.5729 -188.988C22.5814 -189.415 28.5674 -190.27 36.531 -191.66C40.6875 -192.575 44.9625 -192.827 49.1978 -192.408L54.5425 -191.66C57.1614 -190.27 58.551 -189.041 58.6579 -187.919L59.0854 -185.835V-182.094L57.4286 -175.895C56.9476 -174.933 56.4131 -174.505 55.7718 -174.612C54.5655 -175.268 53.3155 -175.839 52.0305 -176.322C37.3326 -176.322 29.8501 -176.322 29.5829 -175.467L10.4489 -173.383H5.47835V-172.955C7.96657 -167.69 10.7503 -162.569 13.8161 -157.618C16.4522 -150.916 18.5608 -144.019 20.1228 -136.99C20.9779 -133.569 21.7796 -129.668 22.6348 -125.286C23.4962 -120.204 23.7831 -115.041 23.49 -109.895C23.2544 -103.936 22.6833 -97.9946 21.7796 -92.0994C21.4518 -90.4955 21.2376 -88.8704 21.1383 -87.2363C21.1383 -85.7934 20.1228 -81.5181 18.466 -74.5173C17.1339 -68.4342 15.1261 -62.5191 12.4799 -56.8819C10.1817 -52.0723 7.13525 -46.1937 3.01984 -39.4602C-2.43787 -30.8585 -8.97604 -22.992 -16.4348 -16.0531C-23.3688 -9.26732 -31.0418 -3.2802 -39.31 1.79614C-44.6546 5.43011 -47.5408 7.1402 -48.0752 7.62117L-52.4579 10.1329C-54.8095 11.5224 -58.6043 13.4462 -63.8421 15.9579C-65.9265 17.0802 -66.9954 17.0802 -67.1557 15.9579C-67.3161 14.8357 -65.4989 14.0341 -62.1852 13.0187C-52.9567 7.71028 -45.8305 3.29245 -40.8065 -0.234634C-36.7116 -2.70607 -32.816 -5.49345 -29.1551 -8.5714C-19.0828 -16.66 -10.1003 -26.0187 -2.43175 -36.414C3.41073 -46 8.50337 -56.0234 12.8006 -66.3944C15.2625 -73.2962 16.8603 -80.4763 17.5574 -87.7707C17.5574 -89.3739 17.5573 -92.6873 17.9314 -97.7641C17.6642 -101.879 17.3435 -105.834 16.9159 -109.468C16.4884 -113.102 16.2746 -115.079 16.2746 -115.186C13.3986 -133.096 6.28915 -150.061 -4.46275 -164.672C-8.9863 -170.745 -14.1465 -176.317 -19.8554 -181.292L-17.3968 -195.828C-17.5102 -195.842 -17.6133 -195.901 -17.6835 -195.991C-17.7537 -196.081 -17.7851 -196.196 -17.7709 -196.309C-17.7568 -196.422 -17.6981 -196.525 -17.6079 -196.596C-17.5177 -196.666 -17.4033 -196.697 -17.2899 -196.683ZM17.9849 -206.783C16.1531 -202.243 13.2786 -198.197 9.59377 -194.973L0.561256 -203.096C3.01562 -207.448 5.76572 -211.626 8.7921 -215.601L14.1368 -211.807C15.9752 -210.617 17.3662 -208.85 18.0918 -206.783H17.9849ZM25.3605 -222.816C23.5182 -218.281 20.6454 -214.237 16.9694 -211.005L7.93694 -219.075C10.3499 -223.444 13.0645 -227.641 16.0609 -231.633L21.4055 -227.839C23.3414 -226.586 24.7782 -224.695 25.4675 -222.495L25.3605 -222.816ZM34.6603 -211.166C32.8235 -206.626 29.9714 -202.568 26.3226 -199.302L17.2901 -207.425C19.6803 -211.803 22.4147 -215.985 25.4675 -219.93C28.7277 -217.739 30.5449 -216.456 30.8121 -216.135C32.7094 -214.962 34.1151 -213.139 34.7672 -211.005L34.6603 -211.166Z" fill="white"/>
<path d="M205.423 59.1382H206.331C206.866 59.1382 207.186 59.5657 207.186 60.4742C206.083 65.9018 204.154 71.1283 201.467 75.972C201.467 78.3234 210.375 87.3549 228.191 103.067C229.702 104.957 230.48 107.329 230.382 109.747C228.031 124.496 225.839 131.871 223.755 131.871C222.775 132.975 221.547 133.832 220.172 134.371C218.797 134.909 217.314 135.115 215.845 134.971H212.531C205.957 134.971 201.842 129.627 199.65 119.473V113.274C199.587 107.613 200.179 101.964 201.414 96.4398C198.917 94.1771 197.197 91.1852 196.497 87.8892V87.4618C197.787 77.5701 200.809 67.9828 205.423 59.1382ZM203.231 99.005C202.964 101.677 202.804 103.28 202.804 103.921C203.023 104.339 203.167 104.791 203.231 105.257H202.804C204.033 114.716 208.469 119.473 216.112 119.473C218.512 119.099 220.873 118.509 223.167 117.709V117.175C223.202 116.925 216.557 110.869 203.231 99.005Z" fill="white"/>
<path d="M93.131 -203.149C89.7883 -198.696 84.8786 -195.677 79.3951 -194.706C76.7964 -193.919 74.0566 -193.712 71.3691 -194.099C68.6817 -194.487 66.1121 -195.461 63.8421 -196.95C63.2542 -197.378 62.3991 -198.126 61.3302 -199.088C60.5326 -199.883 59.6749 -200.616 58.7647 -201.279C56.594 -202.612 54.0966 -203.317 51.5494 -203.317C49.0022 -203.317 46.5047 -202.612 44.3341 -201.279L43.3721 -202.561L44.4944 -204.699C51.6028 -210.043 57.9095 -211.379 63.3611 -208.814C64.6716 -207.453 66.1228 -206.235 67.6903 -205.18C71.2191 -202.809 75.5265 -201.89 79.7158 -202.615C83.9901 -203.008 88.0663 -204.601 91.4741 -207.211H93.6654L94.7344 -206.73L93.131 -203.149ZM52.1907 6.6058L43.4789 11.0415C24.2381 13.1078 15.0987 9.17093 16.0608 -0.769058C16.7969 -8.18898 19.5101 -15.2756 23.9175 -21.2903H23.5967H23.9709L24.9329 -22.0384C26.0274 -23.509 27.2432 -24.8855 28.5673 -26.1534C28.5673 -25.8328 28.3 -25.5656 28.1931 -25.2984C29.0706 -26.3397 29.6603 -27.5925 29.9035 -28.9323C30.1707 -30.8562 30.3311 -38.712 30.3311 -52.4997L34.9275 -97.0694C34.9275 -99.4207 35.4619 -101.719 35.7826 -103.91C35.7588 -103.96 35.7465 -104.015 35.7465 -104.07C35.7465 -104.126 35.7588 -104.18 35.7826 -104.23C37.202 -112.589 39.5504 -120.762 42.7841 -128.599C46.6486 -138.315 52.0636 -147.339 58.8182 -155.32C65.6458 -163.21 74.3352 -169.272 84.0984 -172.955C87.9181 -185.998 94.0753 -198.239 102.27 -209.081C114.777 -224.437 134.98 -232.969 162.879 -234.679L162.184 -233.878C145.443 -232.899 129.508 -226.353 116.915 -215.28L112.799 -210.31C105.016 -200.284 99.2778 -188.827 95.9101 -176.589C103.742 -178.382 111.721 -179.456 119.747 -179.796L119.053 -178.994C110.896 -178.336 102.853 -176.666 95.1085 -174.024C91.6842 -161.164 89.6064 -147.982 88.9086 -134.692C83.5283 -60.8721 75.4935 -17.2644 64.8042 -3.86856L63.1473 -1.73096C57.767 4.00502 54.2039 6.94424 52.458 7.08675L52.1907 6.6058ZM26.4294 -19.794C25.7607 -16.1548 25.7607 -12.4243 26.4294 -8.78519C26.7925 -6.32645 27.752 -3.99384 29.224 -1.99107C30.6959 0.011673 32.6357 1.62386 34.874 2.70473C37.1902 4.07195 39.7971 4.87183 42.4816 5.039C45.1661 5.20619 47.8521 4.7359 50.3201 3.66663L51.9235 4.68201C63.7174 -15.5186 73.1775 -69.7077 80.3037 -157.885C81.1588 -161.519 82.1209 -164.993 83.0829 -168.253C79.8461 -166.324 76.8033 -164.087 73.997 -161.572L69.7747 -156.656C64.0915 -149.664 59.4803 -141.865 56.0923 -133.516C53.7938 -127.642 51.8134 -121.647 50.1597 -115.56C47.4497 -100.937 45.6646 -86.1582 44.8151 -71.3108C43.853 -56.1337 43.1048 -46.1937 42.4634 -41.5978C42.2838 -36.1098 40.4176 -30.8104 37.1187 -26.4206L36.8516 -26.1C33.9186 -23.3393 30.5624 -21.0659 26.9105 -19.3664L26.4294 -19.794Z" fill="white"/>
<path d="M312.049 -4.88379C309.697 -4.08218 302.321 -0.822255 289.815 5.00279C283.375 8.56713 276.412 11.0921 269.185 12.4845H258.495C283.508 0.941259 297.779 -4.88379 301.253 -4.88379H312.049Z" fill="white"/>
<path d="M323.86 115.091C321.509 115.839 314.098 119.134 301.627 124.977C295.166 128.537 288.186 131.062 280.943 132.459H270.574C295.516 120.845 309.768 115.055 313.331 115.091H323.86Z" fill="white"/>
<path d="M185.113 192.633C195.939 190.039 206.417 186.164 216.326 181.09C224.524 176.451 233.653 173.695 243.049 173.021C250.175 173.021 252.901 175.96 251.226 181.838C250.293 186.568 247.788 190.843 244.118 193.969C241.624 189.694 231.718 191.565 214.402 199.581C184.222 210.269 163.966 212.157 153.633 205.246C149.009 202.736 145.229 198.917 142.766 194.269C140.304 189.62 139.268 184.348 139.79 179.113C143.971 185.313 150.224 189.822 157.427 191.832C166.393 194.722 175.995 195 185.113 192.633Z" fill="white"/>
<path d="M243.37 129.092C241.713 129.627 236.368 131.978 227.336 136.2C222.701 138.766 217.685 140.57 212.478 141.544H204.995C223.024 133.243 233.286 129.092 235.78 129.092H243.37ZM246.256 137.376C244.546 137.91 239.201 140.315 230.222 144.483C225.582 147.037 220.567 148.841 215.364 149.827H207.881C225.911 141.491 236.172 137.322 238.667 137.322L246.256 137.376Z" fill="white"/>
<path d="M148.769 222.186C147.059 222.72 141.768 225.125 132.735 229.294C128.094 231.844 123.079 233.647 117.877 234.638H110.394C128.21 226.372 138.472 222.222 141.18 222.186H148.769ZM151.602 230.469C149.891 231.004 144.6 233.409 135.568 237.577C130.924 240.123 125.911 241.926 120.71 242.921H113.227C131.043 234.584 141.304 230.416 144.012 230.416L151.602 230.469Z" fill="white"/>
<path d="M108.898 206.101C111.463 205.513 113.975 204.818 116.541 204.016C118.679 203.281 120.91 202.849 123.168 202.734C124.985 202.734 125.68 203.482 125.252 204.978C125.011 206.171 124.37 207.245 123.435 208.024C122.83 206.955 120.424 206.955 116.22 208.024C108.63 210.696 103.5 211.177 100.934 209.467C99.7641 208.844 98.8077 207.885 98.1884 206.714C97.5691 205.542 97.3154 204.211 97.4602 202.894C98.5168 204.45 100.087 205.585 101.896 206.101C104.185 206.747 106.609 206.747 108.898 206.101ZM111.196 196.535C110.993 197.757 110.498 198.912 109.753 199.901L107.081 198.405C107.081 198.031 107.615 196.855 108.417 194.878L109.967 195.519C110.39 195.761 110.741 196.111 110.982 196.535H111.196ZM113.067 191.565C112.839 192.779 112.347 193.929 111.624 194.931L108.951 193.435C109.307 192.227 109.754 191.048 110.287 189.908L111.837 190.549C112.349 190.742 112.781 191.099 113.067 191.565ZM115.686 196.535C115.494 197.751 115.018 198.904 114.296 199.901L111.624 198.405C111.971 197.195 112.418 196.015 112.96 194.878L114.456 195.519C114.967 195.712 115.4 196.069 115.686 196.535Z" fill="white"/>
<path d="M114.51 149.453C117.075 148.865 119.854 148.171 122.206 147.316C124.346 146.594 126.577 146.18 128.833 146.087C130.651 146.087 131.292 146.835 130.918 148.278C130.688 149.49 130.046 150.585 129.101 151.377C128.459 150.255 126.054 150.255 121.885 151.377C114.296 154.049 109.165 154.53 106.6 152.767C105.429 152.141 104.47 151.183 103.842 150.013C103.215 148.844 102.947 147.515 103.072 146.193C104.111 147.766 105.689 148.906 107.508 149.4C109.788 150.093 112.22 150.111 114.51 149.453ZM116.861 139.887C116.658 141.109 116.163 142.264 115.418 143.254L112.746 141.758C113.111 140.553 113.558 139.375 114.082 138.231L115.632 138.872C116.143 139.065 116.576 139.422 116.861 139.887ZM118.679 134.864C118.487 136.08 118.011 137.234 117.289 138.231L114.617 136.734C114.961 135.53 115.39 134.351 115.899 133.207L117.503 133.849C117.99 134.057 118.401 134.412 118.679 134.864ZM121.351 139.887C121.135 141.096 120.661 142.245 119.961 143.254L117.289 141.758C117.623 140.55 118.052 139.371 118.572 138.231L120.122 138.872C120.642 139.049 121.079 139.41 121.351 139.887Z" fill="white"/>
<path d="M257.694 201.451C259.265 205.457 260.115 209.708 260.206 214.01C260.206 215.506 260.205 216.522 257.747 220.102L257.266 219.835C257.502 218.637 257.627 217.421 257.64 216.201C256.92 208.772 254.875 201.532 251.601 194.824C252.164 193.773 252.789 192.756 253.471 191.778H254.006C254.458 193.19 255.125 194.524 255.983 195.733C256.733 196.433 257.617 196.974 258.581 197.323C259.546 197.672 260.571 197.822 261.595 197.764C263.573 197.764 266.298 196.748 266.94 191.778L268.169 192.152C268.194 192.58 268.194 193.008 268.169 193.435C268.169 198.458 265.871 201.665 261.328 201.665C260.155 201.645 258.988 201.483 257.854 201.184L257.694 201.451Z" fill="white"/>
<path d="M12.0523 301.225C13.6416 305.227 14.5101 309.479 14.6177 313.784C14.6177 315.28 14.6177 316.295 12.1057 319.876L11.6247 319.609C11.8875 318.416 12.0129 317.196 11.9988 315.975C11.3044 308.541 9.2577 301.297 5.95935 294.598C6.65416 293.423 7.24208 292.461 7.88344 291.552H8.36444C8.86065 292.946 9.52468 294.274 10.3419 295.507C11.0916 296.207 11.9754 296.748 12.9399 297.097C13.9044 297.446 14.9297 297.596 15.9539 297.538C17.9314 297.538 20.6572 296.522 21.2985 291.552C21.7169 291.647 22.1278 291.772 22.5278 291.926C22.5535 292.354 22.5535 292.782 22.5278 293.209C22.5278 298.232 20.283 301.439 15.6866 301.439C14.5264 301.429 13.374 301.249 12.266 300.904L12.0523 301.225Z" fill="white"/>
<path d="M152.19 327.945C153.99 332.569 154.985 337.468 155.129 342.428C155.129 344.352 155.129 345.207 152.136 349.161L151.602 348.841C152.02 347.585 152.201 346.262 152.136 344.94C151.323 336.607 149.043 328.484 145.402 320.945C146.204 319.609 146.845 318.487 147.593 317.471H148.128C148.68 319.041 149.434 320.532 150.372 321.907C151.59 323.136 153.238 323.845 154.969 323.884C156.893 323.884 158.015 323.029 158.015 319.876C158.063 319.2 158.063 318.521 158.015 317.845L159.084 317.257C159.939 320.998 161.008 322.227 162.558 322.227C164.108 322.227 165.177 321.212 165.177 318.7C165.201 318.255 165.201 317.809 165.177 317.364C165.722 317.371 166.263 317.461 166.781 317.631C166.855 318.521 166.855 319.414 166.781 320.303C166.781 324.312 164.803 326.716 162.291 326.716C161.11 326.655 159.982 326.204 159.084 325.434C158.723 326.318 158.098 327.069 157.295 327.585C156.492 328.101 155.549 328.358 154.595 328.32C153.699 328.324 152.817 328.104 152.029 327.678L152.19 327.945Z" fill="white"/>
<path d="M89.069 286.743C88.558 287.801 88.1118 288.89 87.7329 290.003C85.5762 290.791 83.6225 292.051 82.0141 293.69C82.0141 294.759 84.4727 296.362 88.8019 296.362H90.5655C90.2961 297.26 89.9567 298.136 89.5501 298.981C86.3433 300.477 83.5106 302.615 83.5106 303.844C83.5106 305.073 85.2743 306.462 88.4277 306.462C90.1763 306.465 91.906 306.101 93.5051 305.394C92.8763 306.591 92.124 307.719 91.2604 308.76C89.9308 309.267 88.5135 309.503 87.0915 309.455C84.3657 309.455 81.4796 308.173 81.4796 304.592C81.5349 303.469 81.8482 302.374 82.395 301.392C82.9419 300.409 83.7077 299.566 84.633 298.927C81.8003 298.66 79.9297 297.271 79.9297 295.186C79.9313 293.615 80.5007 292.096 81.5331 290.911C83.6471 289.03 86.0465 287.497 88.6415 286.369L89.069 286.743Z" fill="white"/>
<path d="M103.5 165.165C102.999 166.246 102.553 167.352 102.164 168.478C98.9568 170.028 96.3913 171.578 96.3913 172.166C96.3913 172.753 98.9033 174.838 103.232 174.838H104.996C104.717 175.733 104.378 176.607 103.981 177.456C100.774 178.953 97.9412 181.09 97.9412 182.319C97.9412 183.548 99.705 184.885 102.805 184.885C104.646 184.952 106.476 184.586 108.15 183.816C107.521 185.013 106.768 186.142 105.905 187.182C104.573 187.68 103.157 187.916 101.736 187.877C101.055 187.937 100.37 187.853 99.7228 187.633C99.0759 187.413 98.4821 187.06 97.9792 186.597C97.4763 186.135 97.0753 185.573 96.8019 184.946C96.5285 184.32 96.3887 183.644 96.3913 182.961C96.4584 181.84 96.7766 180.75 97.3225 179.769C97.8683 178.788 98.6278 177.943 99.5446 177.296C96.712 177.029 94.8413 175.693 94.8413 173.555C94.851 172.001 95.4202 170.502 96.4447 169.333C98.5455 167.435 100.948 165.9 103.553 164.791L103.5 165.165Z" fill="white"/>
<path d="M178.485 228.92C176.327 237.143 173.722 245.242 170.682 253.182H170.361C169.506 251.418 168.972 250.51 168.331 249.067C172.081 241.057 175.035 232.698 177.149 224.11L179.501 221.652H179.822C182.246 231.428 185.986 240.83 190.939 249.601C190.03 250.777 189.175 251.846 188.266 253.182H187.892C183.687 245.568 180.574 237.401 178.646 228.92H178.485Z" fill="white"/>
<path d="M-9.64715 324.418C-11.1971 330.297 -14.9918 341.947 -17.4503 348.627H-17.771C-18.6796 346.917 -19.2141 345.955 -19.802 344.565C-16.1021 336.54 -13.1674 328.185 -11.0367 319.609L-8.63165 317.15C-6.15928 326.911 -2.422 336.307 2.48528 345.1C1.57668 346.222 0.775034 347.344 -0.13356 348.627H-0.507727C-4.71446 341.027 -7.84434 332.88 -9.80749 324.418H-9.64715Z" fill="white"/>
<path d="M276.186 273.756C272.423 267.02 270.179 259.541 269.612 251.846C269.593 250.647 269.682 249.448 269.879 248.265C268.326 248.535 266.753 248.678 265.176 248.693C258.281 248.693 253.525 245.647 253.525 238.699C253.646 235.589 254.841 232.617 256.907 230.288C258.973 227.96 261.781 226.419 264.855 225.927C268.864 225.927 273.3 229.882 273.3 243.242C273.491 252.024 276.139 260.577 280.943 267.931C279.019 270.71 277.95 272.207 276.721 273.81L276.186 273.756ZM262.664 232.554C261.379 232.496 260.113 232.878 259.074 233.635C258.034 234.393 257.284 235.481 256.945 236.722C256.945 240.196 262.878 242.066 267.635 242.066C268.293 242.121 268.954 242.121 269.612 242.066C268.757 233.997 264.588 232.554 262.664 232.554Z" fill="white"/>
<path d="M134.071 211.819C130.295 205.103 128.033 197.643 127.444 189.961C127.44 188.76 127.547 187.562 127.764 186.381C126.21 186.634 124.637 186.759 123.061 186.755C116.167 186.755 111.41 183.762 111.41 176.815C111.531 173.705 112.727 170.733 114.792 168.404C116.858 166.075 119.667 164.534 122.74 164.042C126.749 164.042 131.185 167.997 131.185 181.357C131.377 190.14 134.024 198.692 138.828 206.047C136.904 208.826 135.835 210.322 134.606 211.926L134.071 211.819ZM120.549 170.669C119.271 170.609 118.011 170.982 116.972 171.73C115.934 172.477 115.179 173.553 114.83 174.784C114.83 178.258 120.763 180.128 125.52 180.128C126.16 180.184 126.804 180.184 127.444 180.128C126.589 172.059 122.473 170.669 120.549 170.669Z" fill="white"/>
<path d="M335.886 213.422L334.978 212.994C331.649 211.252 329.039 208.396 327.602 204.925C329.246 206.592 331.317 207.775 333.588 208.345C335.092 208.744 336.684 208.651 338.131 208.078C338.772 208.078 339.04 207.597 338.879 207.063C336.777 205.526 334.967 203.626 333.534 201.451C332.897 200.68 332.584 199.69 332.664 198.692C332.744 197.695 333.21 196.767 333.962 196.107L334.764 195.573C335.466 195.166 336.29 195.017 337.09 195.154C337.891 195.291 338.619 195.704 339.146 196.321C341.013 197.878 342.667 199.675 344.063 201.665C344.063 201.932 344.063 201.986 344.331 201.665C344.825 201.4 345.344 201.185 345.881 201.024L349.729 199.581C351.225 199.225 352.294 200.08 352.936 202.146C353.469 203.541 353.635 205.05 353.417 206.528C352.134 205.246 350.049 205.62 347.11 207.757C345.635 209.386 343.944 210.806 342.086 211.979C341.212 212.642 340.208 213.113 339.14 213.361C338.072 213.61 336.963 213.631 335.886 213.422ZM332.626 188.893C333 190.282 333.214 191.191 333.321 191.725C333.505 192.678 333.505 193.658 333.321 194.611C331.719 194.717 330.112 194.717 328.51 194.611C328.13 193.702 327.861 192.751 327.709 191.778L327.228 188.839L329.793 188.412C330.778 188.226 331.796 188.437 332.626 189V188.893ZM336.955 202.841C337.276 203.375 338.558 203.482 340.857 203.108L343.262 202.52H343.529H343.796C341.391 200.756 339.734 200.115 338.826 200.703C337.952 201.151 337.283 201.916 336.955 202.841Z" fill="white"/>
<path d="M183.349 287.437L182.44 287.01C179.103 285.295 176.502 282.428 175.118 278.94C176.734 280.617 178.79 281.803 181.051 282.361C182.53 282.821 184.115 282.821 185.594 282.361C186.235 282.361 186.502 281.826 186.342 281.292C184.24 279.755 182.43 277.855 180.997 275.68C180.372 274.904 180.068 273.917 180.148 272.923C180.227 271.929 180.684 271.004 181.425 270.336L182.227 269.802C182.935 269.415 183.753 269.278 184.548 269.414C185.344 269.549 186.07 269.95 186.609 270.55C188.49 272.093 190.145 273.892 191.526 275.894C191.526 276.161 191.526 276.268 191.847 275.894C192.31 275.617 192.816 275.418 193.344 275.306C195.535 274.398 196.818 273.917 197.192 273.81C198.688 273.489 199.757 274.291 200.399 276.375C200.986 277.757 201.153 279.281 200.88 280.757C199.65 279.475 197.513 279.849 194.573 281.986C193.098 283.615 191.408 285.035 189.549 286.208C188.66 286.837 187.648 287.272 186.58 287.483C185.512 287.695 184.411 287.68 183.349 287.437ZM180.089 262.961C180.463 264.297 180.677 265.206 180.837 265.74C181.002 266.695 181.002 267.671 180.837 268.626C179.236 268.733 177.629 268.733 176.027 268.626C175.647 267.718 175.377 266.767 175.225 265.794L174.744 262.855L177.31 262.427C178.27 262.24 179.266 262.432 180.089 262.961ZM184.418 276.91C184.739 277.391 186.075 277.497 188.32 277.177L190.778 276.535H191.045C188.64 274.718 186.983 274.077 186.128 274.665C185.287 275.161 184.673 275.967 184.418 276.91Z" fill="white"/>
<path d="M234.765 257.404C233.803 259.114 232.948 260.877 232.146 262.748C231.582 264.33 230.603 265.733 229.313 266.809C228.244 267.664 227.068 267.344 225.893 265.954C224.955 265.02 224.274 263.861 223.915 262.587C225.412 263.229 226.908 262.16 228.512 259.434C230.542 253.716 233.215 250.991 236.475 251.205C239.746 251.403 242.837 252.768 245.187 255.052C243.31 254.28 241.253 254.057 239.254 254.411C238.329 254.539 237.444 254.875 236.667 255.393C235.889 255.912 235.239 256.599 234.765 257.404ZM241.446 264.885L239.949 262.855C239.344 262.197 238.937 261.382 238.773 260.503L242.782 258.205C243.821 259.577 244.785 261.004 245.668 262.48C245.01 263.045 244.314 263.563 243.584 264.03C242.977 264.53 242.23 264.829 241.446 264.885ZM244.973 270.229L243.477 268.252C242.893 267.586 242.505 266.773 242.354 265.901L246.309 263.549C247.404 264.911 248.387 266.358 249.249 267.878L247.165 269.428C246.526 269.875 245.75 270.084 244.973 270.016V270.229ZM238.079 271.458C238.079 271.138 237.33 270.497 236.636 269.481C236.052 268.816 235.664 268.002 235.513 267.13L239.468 264.778C240.542 266.144 241.507 267.591 242.354 269.107C241.285 269.962 240.591 270.443 240.27 270.657C239.635 271.113 238.856 271.322 238.079 271.245V271.458Z" fill="white"/>
<path d="M229.901 252.434C228.92 254.16 228.046 255.945 227.282 257.778C226.704 259.353 225.729 260.752 224.45 261.839C223.381 262.641 222.205 262.374 221.029 260.931C220.085 260.023 219.403 258.879 219.051 257.617C220.548 258.205 222.044 257.136 223.648 254.411C225.679 248.746 228.351 245.967 231.612 246.234C234.871 246.436 237.956 247.78 240.323 250.029C238.442 249.274 236.384 249.07 234.391 249.441C233.465 249.569 232.581 249.905 231.803 250.423C231.026 250.942 230.376 251.629 229.901 252.434ZM218.838 248.532C217.648 247.443 216.733 246.088 216.165 244.578L219.693 242.707C220.758 243.979 221.74 245.317 222.632 246.715C222.049 247.157 221.442 247.568 220.815 247.945C220.246 248.369 219.546 248.577 218.838 248.532ZM215.631 253.502C214.434 252.408 213.502 251.056 212.905 249.548L216.433 247.677C217.522 248.91 218.506 250.233 219.372 251.632L217.876 253.128C217.191 253.501 216.4 253.633 215.631 253.502Z" fill="white"/>
<path d="M55.1837 251.525C57.1472 251.569 59.1114 251.479 61.0629 251.258C62.7163 251.002 64.4076 251.167 65.98 251.739C67.2627 252.273 67.5299 253.449 66.8886 255.213C66.545 256.477 65.861 257.623 64.9111 258.526C64.9111 256.923 63.0938 256.121 59.9405 256.014C53.9545 257.03 50.2667 256.014 48.8771 253.075C47.4715 250.125 47.1681 246.77 48.0219 243.616C48.2594 245.591 49.0779 247.451 50.3736 248.96C50.924 249.729 51.6444 250.36 52.4787 250.805C53.313 251.25 54.2386 251.496 55.1837 251.525ZM58.4974 242.066L57.4285 244.364C57.1553 245.211 56.6339 245.955 55.932 246.502L51.977 244.15C52.6671 242.555 53.4524 241.002 54.3286 239.501L56.6802 240.57C57.5354 241.158 58.3371 241.639 58.4974 242.066ZM61.2767 236.722C61.2767 237.096 60.7422 237.844 60.2612 238.967C59.9515 239.808 59.4152 240.548 58.7112 241.104L54.7562 238.753C55.4222 237.146 56.2083 235.592 57.1078 234.104L59.4595 235.172C60.5284 235.493 61.1163 236.027 61.2767 236.508V236.722ZM65.6593 242.066C65.6593 242.44 65.1783 243.188 64.6438 244.311C64.3293 245.136 63.8151 245.87 63.1473 246.448L59.1922 244.097C59.8643 242.51 60.6503 240.974 61.5439 239.501L63.8956 240.57C64.9111 240.944 65.499 241.425 65.6593 241.906V242.066Z" fill="white"/>
<path d="M53.1528 258.473C55.1159 258.49 57.0786 258.401 59.032 258.205C60.7031 257.952 62.4111 258.117 64.0026 258.686C65.2318 259.221 65.5525 260.396 64.9111 262.16C64.5612 263.406 63.8774 264.533 62.9336 265.42C62.9336 263.87 61.063 263.068 57.9096 262.962C51.977 263.977 48.2892 262.962 46.8461 260.022C45.4676 257.065 45.1651 253.72 45.991 250.563C46.2636 252.528 47.0779 254.379 48.3426 255.907C48.8931 256.676 49.6135 257.307 50.4478 257.752C51.2821 258.197 52.2077 258.444 53.1528 258.473ZM55.1838 270.016C54.7873 271.589 54.0379 273.051 52.9925 274.291L49.6254 272.1C50.2385 270.567 50.9343 269.068 51.7098 267.611L53.6873 268.573C54.2844 268.82 54.8021 269.227 55.1838 269.748V270.016ZM61.063 270.443C60.661 272.004 59.9323 273.461 58.9251 274.719L55.558 272.527C56.116 270.98 56.795 269.479 57.5889 268.038L59.5665 269C60.1728 269.232 60.6946 269.642 61.063 270.176V270.443Z" fill="white"/>
<path d="M-8.47131 209.467C-20.4077 184.528 -25.7524 169.262 -24.5053 163.668C-24.3354 162.974 -24.0653 162.308 -23.7036 161.691C-26.269 164.096 -28.781 166.501 -31.4533 168.585C-32.3165 170.404 -32.9451 172.326 -33.324 174.303C-33.3233 178.825 -32.7668 183.33 -31.6672 187.717C-21.2985 211.943 -14.582 228.314 -11.5177 236.829C-7.94014 249.266 -6.85047 262.287 -8.31097 275.146C-13.335 301.439 -34.2861 323.225 -71.1643 340.504V341.306C-69.7996 341.146 -68.4558 340.842 -67.1558 340.397C-54.0807 333.77 -41.7532 325.762 -30.3844 316.509C-14.7493 302.298 -4.02663 283.493 0.24054 262.801C3.01977 247.375 0.115799 229.596 -8.47131 209.467Z" fill="white"/>
<path d="M185.113 170.349C195.939 167.754 206.417 163.879 216.326 158.805C224.524 154.167 233.653 151.41 243.049 150.736C250.157 150.736 252.883 153.622 251.226 159.5C250.304 164.249 247.798 168.544 244.118 171.685C241.624 167.338 231.718 169.208 214.402 177.296C184.222 187.984 163.966 189.872 153.633 182.961C149.009 180.451 145.229 176.632 142.766 171.984C140.304 167.335 139.268 162.063 139.79 156.828C143.988 163.012 150.234 167.515 157.427 169.547C166.393 172.437 175.995 172.715 185.113 170.349ZM187.518 140.422C186.691 145.245 184.772 149.815 181.906 153.782L171.217 147.903C172.686 143.106 174.472 138.41 176.561 133.848L182.708 136.36C184.697 137.177 186.38 138.597 187.518 140.422ZM200.826 140.422C200.088 145.241 198.26 149.829 195.481 153.835L184.792 147.903C186.185 143.097 187.973 138.414 190.137 133.902L196.283 136.36C198.178 137.11 199.774 138.462 200.826 140.208V140.422Z" fill="white"/>
<path d="M240.858 426.757C245.077 417.286 247.418 407.087 247.752 396.724C248.018 386.703 246.939 376.692 244.546 366.957C242.071 356.875 238.69 347.038 234.444 337.565C230.097 327.838 225.501 318.237 220.655 308.76C215.738 299.301 210.981 290.003 206.224 280.757C201.699 271.994 197.753 262.943 194.413 253.663C191.322 245.289 189.275 236.565 188.32 227.69C187.452 219.348 188.438 210.918 191.206 203.001C194.42 194.285 199.49 186.371 206.064 179.807C214.906 171.142 225.061 163.928 236.155 158.431C235.047 159.266 233.866 160 232.627 160.622C230.65 161.798 228.191 163.348 225.358 165.378C222.171 167.655 219.136 170.136 216.272 172.807C212.901 175.936 209.89 179.431 207.293 183.228C204.398 187.489 202.063 192.105 200.345 196.962C198.401 202.494 197.372 208.306 197.299 214.17C197.282 221.211 198.532 228.198 200.987 234.798C203.824 242.585 207.181 250.173 211.035 257.51C215.096 265.42 219.568 273.614 224.45 282.093C229.26 290.59 233.91 299.301 238.292 308.333C242.688 317.359 246.543 326.638 249.837 336.122C253.109 345.534 255.192 355.318 256.037 365.247C256.839 375.41 256.155 385.636 254.006 395.602C251.443 406.664 246.995 417.203 240.858 426.757Z" fill="white"/>
<path d="M363.732 343.123C356.196 344.705 348.454 345.066 340.803 344.192C333.686 343.278 327.08 340.004 322.043 334.893C316.842 327.451 314.524 318.372 315.523 309.348L318.943 311.539C317.055 315.814 321.01 320.945 330.809 326.93C335.773 329.779 341.566 330.836 347.217 329.923L362.182 327.946C370.643 326.052 379.274 325.014 387.943 324.846H393.288V324.418C393.288 322.352 383.935 310.47 365.228 288.774C349.017 267.709 334.708 245.247 322.471 221.652C318.108 214.964 315.364 207.353 314.454 199.42C316.113 187.974 318.942 176.728 322.898 165.86C325.88 166.881 328.995 167.457 332.145 167.57H335.886C347.801 166.559 359.439 163.428 370.252 158.324C377.741 154.418 384.445 149.164 390.028 142.826C391.943 138.886 394.159 135.098 396.655 131.497H397.083C393.287 145.911 384.761 158.633 372.871 167.623C365.37 172.855 356.987 176.692 348.125 178.953L347.324 178.525C347.324 179.861 341.017 181.09 328.403 182.266V181.838L327.548 182.266H327.174C325.197 182.266 324.235 181.838 324.235 181.037C320.868 181.037 319.157 182.426 319.157 185.259C318.844 185.907 318.697 186.623 318.73 187.343C318.73 193.827 325.856 208.648 340.108 231.806C353.88 254.908 369.769 276.68 387.569 296.843C392.466 301.726 396.035 307.777 397.938 314.425V315.654C397.815 319.032 397.403 322.393 396.708 325.701C399.06 325.701 400.343 327.304 400.557 330.404V333.29C400.687 334.734 400.522 336.189 400.071 337.567C399.621 338.945 398.895 340.217 397.938 341.306C392.678 340.105 387.298 339.513 381.904 339.542C375.65 341.199 369.504 342.375 363.732 343.123Z" fill="white"/>
<path d="M213.333 348.039C207.395 348.365 201.486 349.079 195.642 350.177C190.68 351.311 185.512 351.164 180.623 349.749C176.739 348.36 175.564 344.94 177.096 339.489C177.825 335.49 179.679 331.783 182.44 328.801C183.349 333.503 188.587 335.641 198.154 335.16C215.969 330.778 227.318 332.951 232.199 341.68C237.116 350.27 238.785 360.34 236.903 370.057C235.733 364.03 232.858 358.465 228.618 354.025C226.696 351.927 224.319 350.298 221.669 349.26C219.02 348.223 216.168 347.805 213.333 348.039ZM182.013 325.594C182.494 324.151 183.456 321.372 184.952 317.364C185.812 314.369 187.454 311.658 189.709 309.508L204.247 316.67C202.318 322.449 199.96 328.076 197.192 333.503C192.542 331.9 189.709 330.831 188.64 330.35C185.981 329.511 183.659 327.845 182.013 325.594Z" fill="white"/>
<path d="M278.645 235.6C279.393 237.684 280.248 239.875 281.21 242.066L298.42 283.429L304.352 294.652C308.869 294.691 313.308 295.828 317.287 297.965C316.898 294.426 315.923 290.977 314.4 287.758C312.797 283.376 308.735 274.291 302.375 260.45C296.002 247.011 290.451 233.198 285.753 219.087C284.302 212.957 283.213 206.747 282.493 200.489C281.515 191.577 281.893 182.568 283.615 173.769L284.951 167.463C291.057 151.83 302.188 138.67 316.592 130.054V129.039C292.648 143.29 278.662 160.106 274.636 179.487C272.382 189.675 271.823 200.166 272.979 210.536C273.846 218.955 275.638 227.253 278.324 235.279C278.392 235.419 278.505 235.532 278.645 235.6Z" fill="white"/>
<path d="M317.874 396.296C323.275 387.441 326.905 377.623 328.564 367.385C330.052 357.476 330.232 347.414 329.098 337.458C327.931 327.137 325.838 316.942 322.845 306.997C319.781 296.843 316.414 286.76 312.744 276.749C309.074 266.738 305.511 256.869 302.054 247.143C298.661 237.875 295.876 228.396 293.717 218.766C291.732 210.001 290.799 201.031 290.937 192.045C291.115 183.666 293.16 175.432 296.923 167.944C301.174 159.618 307.194 152.322 314.561 146.567C324.465 139.03 335.482 133.08 347.217 128.932C346.01 129.637 344.739 130.228 343.422 130.695C341.284 131.604 338.665 132.833 335.619 134.49C332.154 136.333 328.815 138.404 325.624 140.689C321.892 143.386 318.469 146.487 315.416 149.934C312 153.788 309.09 158.062 306.758 162.653C304.049 167.889 302.242 173.544 301.413 179.38C300.466 186.348 300.81 193.431 302.428 200.275C304.267 208.351 306.641 216.296 309.537 224.056C312.583 232.447 316.004 241.104 319.692 250.136C323.379 259.167 326.96 268.412 330.381 277.925C333.617 287.424 336.259 297.116 338.291 306.943C340.357 316.687 341.183 326.652 340.75 336.603C340.281 346.792 338.318 356.857 334.924 366.476C331.03 377.337 325.259 387.43 317.874 396.296Z" fill="white"/>
<path d="M260.098 260.45C248.715 251.778 236.651 244.04 224.022 237.31C213.574 231.756 202.644 227.159 191.366 223.576C182.011 220.566 172.348 218.612 162.558 217.751C154.396 217.029 146.177 217.299 138.08 218.552C131.205 219.639 124.515 221.671 118.197 224.591C112.82 227.09 107.862 230.407 103.5 234.424C99.6998 237.929 96.5669 242.093 94.2533 246.715C92.1731 250.869 91.0413 255.432 90.9396 260.076C90.8961 264.603 91.9409 269.075 93.9861 273.115C96.3371 277.606 99.7046 281.485 103.82 284.445C108.239 287.685 113.251 290.027 118.572 291.339C124.87 292.972 131.315 293.974 137.812 294.331C145.197 294.838 152.608 294.838 159.993 294.331C167.796 293.868 175.706 293.12 183.723 292.087C187.678 291.499 192.114 290.751 197.085 289.789L212.852 286.582L230.168 283.055C236.101 281.88 242.087 280.811 248.073 279.849C254.059 278.887 259.992 278.192 265.871 277.658C271.428 277.098 277.016 276.902 282.6 277.07C287.561 277.19 292.501 277.781 297.351 278.833C301.576 279.721 305.623 281.311 309.323 283.536C311.017 284.59 312.533 285.907 313.813 287.437C315.07 289.003 315.965 290.828 316.431 292.782C316.843 295.061 316.843 297.396 316.431 299.675C316.028 302.704 315.181 305.657 313.919 308.44C314.055 307.473 313.967 306.489 313.661 305.562C313.355 304.635 312.84 303.791 312.156 303.096C310.642 301.491 308.825 300.201 306.811 299.301C304.286 298.195 301.653 297.353 298.954 296.79C296.015 296.202 293.182 295.667 290.403 295.293C287.624 294.919 285.058 294.652 282.706 294.545H277.362C271.56 294.556 265.763 294.859 259.992 295.454C254.166 296.041 248.34 296.79 242.514 297.752C236.689 298.713 230.863 299.729 225.037 300.851L207.507 304.325C202.964 305.233 197.673 306.142 191.74 307.05C185.807 307.959 179.501 308.653 172.927 309.134C166.353 309.615 159.619 309.829 152.778 309.722C146.084 309.684 139.403 309.148 132.788 308.119C126.597 307.18 120.524 305.586 114.67 303.363C109.391 301.184 104.527 298.11 100.293 294.278C96.0695 290.553 92.7285 285.934 90.512 280.757C88.0072 274.683 86.858 268.136 87.1448 261.572C87.2554 257.292 88.0308 253.055 89.4431 249.014C90.9436 244.773 93.0889 240.79 95.8033 237.203C98.727 233.335 102.182 229.899 106.065 226.996C110.414 223.713 115.199 221.052 120.282 219.087C126.14 216.842 132.238 215.282 138.454 214.437C145.731 213.43 153.097 213.215 160.42 213.796C169.91 214.38 179.286 216.175 188.32 219.14C197.626 222.244 206.669 226.086 215.364 230.63C224.121 235.159 232.598 240.209 240.751 245.754C248.928 251.098 256.518 256.442 263.572 262.213L260.098 260.45ZM137.705 320.624C135.835 326.663 134.926 329.762 134.926 329.869C134.085 332.836 132.587 335.576 130.544 337.885L117.235 330.19C118.785 326.236 120.923 320.197 123.702 312.02C128.192 313.837 130.811 314.906 131.613 315.334C134.222 316.294 136.389 318.176 137.705 320.624ZM132.04 267.718C130.17 273.757 129.261 276.856 129.261 276.963C128.431 279.935 126.932 282.677 124.878 284.979L111.623 277.284C113.12 273.329 115.258 267.29 118.037 259.114C122.527 260.931 125.199 262 125.947 262.427C128.487 263.415 130.578 265.296 131.826 267.718H132.04ZM148.074 270.123C146.204 276.161 145.242 279.208 145.242 279.368C144.417 282.314 142.937 285.036 140.912 287.331L127.283 279.849C128.78 275.894 130.918 269.802 133.697 261.625C138.24 263.442 140.859 264.565 141.607 264.992C144.212 265.898 146.397 267.722 147.754 270.123H148.074Z" fill="white"/>
<path d="M265.978 313.784C266.958 314.819 268.159 315.621 269.491 316.13C270.823 316.638 272.253 316.841 273.674 316.723C275.463 316.658 277.247 316.498 279.019 316.242C277.559 314.271 275.872 312.477 273.995 310.898C273.742 309.756 273.599 308.593 273.567 307.424C273.567 304.271 274.209 302.668 274.636 302.668C275.388 303.748 276.347 304.667 277.457 305.374C278.567 306.08 279.806 306.559 281.103 306.783H281.798C284.622 306.663 287.374 305.856 289.815 304.432H291.311C292.648 304.432 294.518 305.768 296.923 308.546C298.95 311.274 300.738 314.17 302.268 317.204C302.696 317.204 302.963 317.685 302.963 318.7C302.963 322.174 302.482 324.044 301.627 324.739C299.097 324.312 296.425 323.937 293.61 323.617C288.531 323.484 283.454 323.95 278.484 325.006C276.045 325.823 273.42 325.909 270.932 325.254C268.444 324.598 266.202 323.231 264.481 321.319C264.155 320.991 263.884 320.612 263.68 320.197L262.771 318.433C262.177 318.264 261.548 318.264 260.954 318.433C256.571 320.41 253.792 320.197 252.509 317.738C251.161 314.08 250.883 310.113 251.707 306.302C251.975 309.509 252.67 311.272 253.845 311.646C255.06 311.918 256.319 311.918 257.533 311.646C258.71 311.532 259.862 311.244 260.954 310.791L262.985 310.203C263.678 310.141 264.369 310.352 264.909 310.791C265.627 311.62 266.009 312.688 265.978 313.784ZM282.546 313.41V314.479V315.334C283.829 315.334 286.769 315.066 291.418 314.479H292.487H296.603C296.044 313.523 295.27 312.712 294.342 312.109C293.414 311.506 292.358 311.128 291.258 311.005H290.83C288.266 312.278 285.499 313.092 282.653 313.41H282.546Z" fill="white"/>
<path d="M122.206 368.186C119.534 360.33 115.525 356.429 110.127 356.429C105.854 356.957 101.552 357.225 97.2464 357.231C95.3223 357.231 94.3603 352.421 94.3603 342.695C94.3603 332.969 95.0551 328.159 96.3913 328.159C100.488 328.36 104.468 329.592 107.963 331.741C111.457 333.89 114.352 336.885 116.38 340.45C121.045 346.642 124.541 353.632 126.696 361.079C127.925 366.423 128.513 369.469 128.513 369.629C131.72 371.125 132.628 374.385 131.238 379.355C130.487 383.346 128.636 387.048 125.894 390.044C123.115 384.699 117.075 382.989 107.775 384.219C91.3672 387.799 81.0521 385.448 76.0815 377.164C71.1873 368.566 69.5376 358.498 71.4317 348.787C72.586 354.808 75.4424 360.372 79.6624 364.819C81.476 366.911 83.6941 368.615 86.1833 369.827C88.6724 371.039 91.3812 371.736 94.1465 371.874C100.407 371.9 106.632 370.925 112.586 368.988C115.749 368.34 118.979 368.071 122.206 368.186ZM91.1535 323.403C90.4052 325.915 89.657 328.373 89.0156 330.778C88.2509 333.21 86.9754 335.451 85.2744 337.351C82.7802 336.033 79.0923 333.949 74.2108 331.098C75.3867 327.625 77.2573 322.708 79.5555 316.349C81.8735 316.652 84.1025 317.436 86.0997 318.651C88.0969 319.866 89.8182 321.484 91.1535 323.403ZM91.1535 340.13C90.4052 342.588 89.657 345.046 89.0156 347.505C88.2396 349.916 86.9649 352.138 85.2744 354.025C82.7624 352.742 79.0745 350.658 74.2108 347.825C75.3867 344.352 77.2573 339.435 79.5555 333.022C81.874 333.345 84.1009 334.142 86.0967 335.365C88.0924 336.588 89.814 338.21 91.1535 340.13Z" fill="white"/>
<path d="M-19.695 141.918C-16.3777 145.736 -11.8137 148.255 -6.81435 149.026C-3.41415 149.917 0.0935059 150.33 3.60774 150.255C7.71378 150.258 11.8172 150.044 15.9005 149.613C19.909 149.239 25.9485 148.331 33.912 146.941C38.1576 146.013 42.5255 145.778 46.8461 146.247L52.1908 146.995C54.8097 148.384 56.1993 149.613 56.3596 150.736L56.7872 152.82V156.561L55.0769 162.76C54.5959 163.722 54.0614 164.149 53.4201 164.042C52.2259 163.378 50.9736 162.823 49.6788 162.386C35.0344 162.386 27.5519 162.653 27.2312 163.187L8.15067 165.272H3.12674V165.699C5.61496 170.965 8.39861 176.085 11.4644 181.037C14.1965 187.642 16.4122 194.45 18.0918 201.398C18.9469 204.818 19.7486 208.719 20.6038 213.101C21.4853 218.181 21.7901 223.344 21.5124 228.492C21.232 234.451 20.6433 240.39 19.7486 246.288C19.4471 247.896 19.233 249.52 19.1073 251.151C19.1073 252.594 18.0918 256.869 16.4349 263.87C15.1029 269.953 13.0951 275.868 10.4489 281.505C8.15071 286.315 5.10419 292.194 1.04224 298.927C-4.42336 307.538 -10.9805 315.406 -18.4658 322.334C-25.4121 329.121 -33.0832 335.125 -41.341 340.237C-46.6857 343.817 -49.5718 345.581 -50.1062 346.008L-54.4354 348.52C-56.8405 349.91 -60.6353 351.833 -65.8196 354.345C-67.9218 355.45 -69.0442 355.45 -69.1868 354.345C-69.1868 353.383 -67.4765 352.421 -64.1628 351.459C-54.9699 346.115 -47.8437 341.68 -42.7841 338.153C-38.6807 335.694 -34.784 332.906 -31.1326 329.816C-21.0779 321.708 -12.0977 312.352 -4.40927 301.973C1.39989 292.377 6.47401 282.355 10.7696 271.993C13.2315 265.091 14.8293 257.911 15.5263 250.617C15.5263 249.013 15.5264 245.7 15.9539 240.623C15.6867 236.508 15.3126 232.554 14.885 228.92C14.4574 225.286 14.2971 223.308 14.2971 223.201C11.3793 205.294 4.25394 188.334 -6.49369 173.715C-11.2426 167.547 -16.6555 161.92 -22.6346 156.935L-20.1226 142.399C-20.1226 142.399 -20.0157 141.918 -19.695 141.918Z" fill="white"/>
<path d="M90.5654 135.559C87.2228 140.012 82.3131 143.03 76.8296 144.002C74.2397 144.788 71.5084 144.995 68.8297 144.607C66.1509 144.219 63.5905 143.246 61.3301 141.758C60.418 141.116 59.56 140.402 58.7646 139.62C57.9709 138.841 57.1322 138.11 56.2526 137.429C54.0717 136.097 51.5659 135.393 49.0106 135.393C46.4553 135.393 43.9495 136.097 41.7686 137.429L40.8065 136.146L41.9289 134.009C49.0373 128.665 55.344 127.329 60.849 129.894C62.1122 131.284 63.5493 132.505 65.1248 133.528C68.6723 135.902 72.9974 136.821 77.2037 136.093C81.4643 135.71 85.526 134.115 88.9086 131.497H91.1533L92.2223 132.031L90.5654 135.559ZM49.5184 345.314C46.9529 346.65 44.1737 348.146 40.8065 349.749C21.5657 351.816 12.4441 347.879 13.4418 337.939C14.1362 330.518 16.8333 323.425 21.2451 317.418L20.9243 317.151H21.3519L22.2605 316.402C23.3721 314.93 24.6057 313.553 25.9483 312.287L25.5742 313.142C26.4367 312.098 27.0083 310.844 27.2311 309.508C27.4805 307.584 27.6408 299.729 27.7121 285.941L32.2551 241.371C32.2551 239.02 32.7895 236.722 33.1637 234.531C33.1399 234.481 33.1275 234.426 33.1275 234.371C33.1275 234.315 33.1399 234.26 33.1637 234.21C34.608 225.858 36.9556 217.687 40.1652 209.841C44.0296 200.126 49.4446 191.102 56.1992 183.121C63.0374 175.242 71.7236 169.183 81.4795 165.485C85.2991 152.443 91.4564 140.202 99.6514 129.359C112.158 114.004 132.361 105.471 160.26 103.761L159.565 104.563C142.836 105.525 126.913 112.074 114.349 123.16L110.18 128.13C102.427 138.176 96.6923 149.627 93.2912 161.852C101.12 160.052 109.101 158.996 117.128 158.698L116.487 159.447C108.306 160.091 100.242 161.779 92.4895 164.47C89.0611 177.33 86.9833 190.512 86.2897 203.802C80.9094 277.622 72.8745 321.212 62.1852 334.572L60.5284 336.71C55.1837 342.446 51.6206 345.385 49.839 345.528L49.5184 345.314ZM23.757 318.914C22.9998 322.537 22.9093 326.267 23.4898 329.923C23.8618 332.378 24.8246 334.707 26.2956 336.709C27.7665 338.71 29.7016 340.324 31.9344 341.413C34.2509 342.776 36.8545 343.578 39.5368 343.755C42.2191 343.931 44.9055 343.477 47.3805 342.428L48.9839 343.39C60.8134 323.189 70.2913 269 77.4176 180.823C78.2727 177.189 79.1813 173.769 80.1433 170.455C76.9146 172.371 73.8883 174.61 71.1108 177.136L66.8885 182.052C61.1707 189.03 56.5398 196.831 53.1527 205.192C50.3735 212.602 48.396 218.588 47.2202 223.148C44.5101 237.771 42.725 252.55 41.8755 267.397C40.9669 282.574 40.1652 292.514 39.5238 297.11C39.3759 302.604 37.5064 307.913 34.1792 312.287V312.608C31.2462 315.369 27.89 317.642 24.2381 319.342L23.757 318.914Z" fill="white"/>
<path d="M250.799 217.804C250.815 219.454 250.464 221.087 249.771 222.585C249.077 224.082 248.059 225.406 246.79 226.462C244.227 228.729 240.914 229.967 237.491 229.935C234.265 229.959 231.124 228.906 228.565 226.942C227.235 226.044 226.146 224.834 225.391 223.419C224.637 222.003 224.24 220.424 224.236 218.819C224.799 214.33 226.962 210.194 230.329 207.169C231.184 206.261 234.23 203.161 239.575 197.817C240.383 201.735 242.336 205.325 245.187 208.131C247.91 210.779 249.852 214.126 250.799 217.804ZM243.958 218.606C243.958 216.896 241.659 213.636 237.117 208.826C233.055 213.262 231.077 216.254 231.077 217.804C231.077 221.652 233.161 223.576 237.277 223.576C238.865 223.542 240.408 223.04 241.713 222.133C242.365 221.795 242.915 221.29 243.31 220.671C243.704 220.052 243.927 219.339 243.958 218.606Z" fill="white"/>
<path d="M45.5099 188.999C45.558 190.654 45.2209 192.298 44.5253 193.8C43.8297 195.302 42.7945 196.623 41.5014 197.657C38.9565 199.962 35.6352 201.222 32.2016 201.184C28.9664 201.214 25.8179 200.139 23.276 198.138C21.9407 197.254 20.8428 196.056 20.0786 194.649C19.3145 193.242 18.9075 191.669 18.8934 190.068C19.4711 185.571 21.6538 181.434 25.0398 178.418C25.8949 177.51 28.9414 174.41 34.286 169.066C35.014 172.939 36.8739 176.51 39.6307 179.327C42.441 181.95 44.475 185.297 45.5099 188.999ZM38.6687 189.854C38.6687 188.091 36.3705 184.831 31.8275 180.075C27.7656 184.51 25.788 187.503 25.788 188.999C25.788 192.901 27.8725 194.824 31.9879 194.824C33.5764 194.791 35.1196 194.289 36.424 193.382C37.0833 193.039 37.6391 192.526 38.0337 191.897C38.4284 191.267 38.6476 190.544 38.6687 189.801V189.854Z" fill="white"/>
</g>
<defs>
<linearGradient id="paint0_linear_118_293" x1="0.294922" y1="-1.21426" x2="662.656" y2="-1.21426" gradientUnits="userSpaceOnUse">
<stop stop-color="#25AAE1"/>
<stop offset="1" stop-color="#0E76BC"/>
</linearGradient>
</defs>
</svg>
