<svg width="14" height="25" viewBox="0 0 14 25" fill="none" xmlns="http://www.w3.org/2000/svg">
<path d="M14 0.702426C14 0.518308 13.933 0.341732 13.8136 0.211541C13.6943 0.0813501 13.5324 0.00820955 13.3636 0.00820955H10.1818C8.57961 -0.0788579 7.01094 0.529415 5.81856 1.70013C4.62617 2.87084 3.907 4.50881 3.81818 6.25616V10.0049H0.636364C0.467589 10.0049 0.305728 10.0781 0.186387 10.2083C0.0670454 10.3384 0 10.515 0 10.6991V14.3091C0 14.4932 0.0670454 14.6698 0.186387 14.8C0.305728 14.9301 0.467589 15.0033 0.636364 15.0033H3.81818V24.3058C3.81818 24.4899 3.88523 24.6665 4.00457 24.7967C4.12391 24.9269 4.28577 25 4.45455 25H8.27273C8.4415 25 8.60336 24.9269 8.7227 24.7967C8.84205 24.6665 8.90909 24.4899 8.90909 24.3058V15.0033H12.2436C12.3852 15.0055 12.5233 14.9562 12.6363 14.8632C12.7492 14.7701 12.8305 14.6387 12.8673 14.4896L13.7836 10.8796C13.809 10.7771 13.8124 10.6695 13.7936 10.5653C13.7748 10.461 13.7344 10.3629 13.6753 10.2784C13.6163 10.1939 13.5403 10.1253 13.4532 10.0779C13.3661 10.0305 13.2701 10.0055 13.1727 10.0049H8.90909V6.25616C8.94075 5.91249 9.08869 5.59403 9.32403 5.36297C9.55937 5.13191 9.86521 5.00484 10.1818 5.00657H13.3636C13.5324 5.00657 13.6943 4.93343 13.8136 4.80324C13.933 4.67305 14 4.49647 14 4.31235V0.702426Z" fill="#F8F8F8"/>
</svg>
