<svg width="31" height="25" viewBox="0 0 31 25" fill="none" xmlns="http://www.w3.org/2000/svg">
<path d="M30.6452 2.96546C29.5182 3.46658 28.3076 3.80518 27.0348 3.95822C28.3481 3.16969 29.3305 1.92863 29.7989 0.466612C28.5651 1.20203 27.2148 1.71968 25.8067 1.99707C24.8597 0.98245 23.6055 0.309944 22.2386 0.0839617C20.8718 -0.142021 19.4688 0.0911637 18.2476 0.747312C17.0264 1.40346 16.0551 2.44586 15.4847 3.71268C14.9144 4.97949 14.7767 6.39985 15.0931 7.75322C12.5932 7.62725 10.1475 6.97519 7.91492 5.83934C5.68233 4.70349 3.71267 3.10924 2.1338 1.16006C1.59394 2.09459 1.28352 3.1781 1.28352 4.33203C1.28292 5.37084 1.53784 6.39374 2.02566 7.30997C2.51349 8.2262 3.21913 9.00743 4.07999 9.58435C3.08162 9.55247 2.10528 9.28176 1.23223 8.79474V8.876C1.23213 10.333 1.73434 11.7451 2.65366 12.8728C3.57297 14.0005 4.85276 14.7743 6.27587 15.0628C5.34972 15.3144 4.37872 15.3514 3.43621 15.1712C3.83773 16.4248 4.61985 17.5211 5.67308 18.3065C6.72631 19.0919 7.99792 19.5272 9.30989 19.5513C7.08274 21.3058 4.33223 22.2575 1.50081 22.2533C0.999256 22.2534 0.498124 22.224 0 22.1653C2.87405 24.0196 6.21965 25.0038 9.6365 25C21.203 25 27.5261 15.3865 27.5261 7.04894C27.5261 6.77806 27.5194 6.50447 27.5072 6.23359C28.7372 5.34102 29.7988 4.23573 30.6425 2.96952L30.6452 2.96546Z" fill="#F8F8F8"/>
</svg>
